<?xml version="1.0" standalone="no"?>
<!DOCTYPE svg PUBLIC "-//W3C//DTD SVG 20010904//EN"
 "http://www.w3.org/TR/2001/REC-SVG-20010904/DTD/svg10.dtd">
<svg version="1.0" xmlns="http://www.w3.org/2000/svg"
 width="260.000000pt" height="260.000000pt" viewBox="0 0 260.000000 260.000000"
 preserveAspectRatio="xMidYMid meet">
<metadata>
Created by potrace 1.14, written by Peter Selinger 2001-2017
</metadata>
<g transform="translate(0.000000,260.000000) scale(0.100000,-0.100000)"
fill="#000000" stroke="none">
<path d="M1169 2585 c-3 -2 -27 -6 -55 -9 -85 -8 -280 -64 -311 -88 -7 -6 -13
-7 -13 -4 0 14 -210 -107 -285 -164 -60 -46 -253 -253 -264 -284 -2 -6 -7 -13
-11 -16 -13 -10 -79 -130 -109 -197 -79 -182 -105 -310 -105 -518 0 -158 2
-182 29 -301 52 -230 173 -443 349 -619 186 -185 387 -292 658 -352 79 -17
321 -24 418 -11 276 37 525 163 730 368 187 187 299 395 356 660 32 149 23
438 -17 575 -24 79 -57 171 -85 230 -25 54 -100 183 -114 195 -3 3 -24 31 -48
62 -150 197 -412 368 -664 434 -69 18 -76 19 -162 32 -59 9 -290 15 -297 7z"/>
</g>
</svg>
